<mxfile host="app.diagrams.net" agent="Mozilla/5.0 (Windows NT 10.0; Win64; x64) AppleWebKit/537.36 (KHTML, like Gecko) Chrome/136.0.0.0 Safari/537.36" version="27.1.6">
  <diagram name="Page-1" id="7ibqT-67MEIRERPg5ZB4">
    <mxGraphModel dx="1426" dy="777" grid="1" gridSize="10" guides="1" tooltips="1" connect="1" arrows="1" fold="1" page="1" pageScale="1" pageWidth="850" pageHeight="1100" math="0" shadow="0">
      <root>
        <mxCell id="0" />
        <mxCell id="1" parent="0" />
        <mxCell id="XCkmJXsmW-Lg5wgpeUs4-1" value="" style="rounded=0;whiteSpace=wrap;html=1;dashed=1;" vertex="1" parent="1">
          <mxGeometry x="360" y="180" width="160" height="120" as="geometry" />
        </mxCell>
        <mxCell id="XCkmJXsmW-Lg5wgpeUs4-14" style="edgeStyle=orthogonalEdgeStyle;rounded=0;orthogonalLoop=1;jettySize=auto;html=1;exitX=0.5;exitY=0;exitDx=0;exitDy=0;" edge="1" parent="1" source="XCkmJXsmW-Lg5wgpeUs4-2" target="XCkmJXsmW-Lg5wgpeUs4-1">
          <mxGeometry relative="1" as="geometry" />
        </mxCell>
        <mxCell id="XCkmJXsmW-Lg5wgpeUs4-15" value="Resolve OpenAI Endpoint" style="edgeLabel;html=1;align=center;verticalAlign=middle;resizable=0;points=[];" vertex="1" connectable="0" parent="XCkmJXsmW-Lg5wgpeUs4-14">
          <mxGeometry x="0.125" y="-2" relative="1" as="geometry">
            <mxPoint x="-2" y="-5" as="offset" />
          </mxGeometry>
        </mxCell>
        <mxCell id="XCkmJXsmW-Lg5wgpeUs4-17" style="edgeStyle=orthogonalEdgeStyle;rounded=0;orthogonalLoop=1;jettySize=auto;html=1;exitX=0.25;exitY=0;exitDx=0;exitDy=0;entryX=0.5;entryY=1;entryDx=0;entryDy=0;" edge="1" parent="1" source="XCkmJXsmW-Lg5wgpeUs4-2" target="XCkmJXsmW-Lg5wgpeUs4-4">
          <mxGeometry relative="1" as="geometry" />
        </mxCell>
        <mxCell id="XCkmJXsmW-Lg5wgpeUs4-18" style="edgeStyle=orthogonalEdgeStyle;rounded=0;orthogonalLoop=1;jettySize=auto;html=1;exitX=0.75;exitY=0;exitDx=0;exitDy=0;entryX=0.5;entryY=1;entryDx=0;entryDy=0;" edge="1" parent="1" source="XCkmJXsmW-Lg5wgpeUs4-2" target="XCkmJXsmW-Lg5wgpeUs4-6">
          <mxGeometry relative="1" as="geometry" />
        </mxCell>
        <mxCell id="XCkmJXsmW-Lg5wgpeUs4-2" value="Azure&amp;nbsp;&lt;div&gt;Network Hub&lt;/div&gt;" style="rounded=0;whiteSpace=wrap;html=1;dashed=1;align=left;verticalAlign=top;" vertex="1" parent="1">
          <mxGeometry x="320" y="400" width="240" height="120" as="geometry" />
        </mxCell>
        <mxCell id="XCkmJXsmW-Lg5wgpeUs4-3" value="Azure AI Foundry&lt;div&gt;Non-prod&lt;/div&gt;" style="rounded=0;whiteSpace=wrap;html=1;dashed=1;verticalAlign=top;align=left;strokeColor=#FF8000;" vertex="1" parent="1">
          <mxGeometry x="75" y="40" width="250" height="120" as="geometry" />
        </mxCell>
        <mxCell id="XCkmJXsmW-Lg5wgpeUs4-22" style="edgeStyle=orthogonalEdgeStyle;rounded=0;orthogonalLoop=1;jettySize=auto;html=1;exitX=0.5;exitY=0;exitDx=0;exitDy=0;entryX=0.5;entryY=1;entryDx=0;entryDy=0;" edge="1" parent="1" source="XCkmJXsmW-Lg5wgpeUs4-4" target="XCkmJXsmW-Lg5wgpeUs4-3">
          <mxGeometry relative="1" as="geometry" />
        </mxCell>
        <mxCell id="XCkmJXsmW-Lg5wgpeUs4-4" value="Azure&amp;nbsp;&lt;span style=&quot;background-color: transparent; color: light-dark(rgb(0, 0, 0), rgb(255, 255, 255));&quot;&gt;Network&amp;nbsp;&lt;/span&gt;&lt;div&gt;&lt;span style=&quot;background-color: transparent; color: light-dark(rgb(0, 0, 0), rgb(255, 255, 255));&quot;&gt;Non-Prod&lt;/span&gt;&lt;/div&gt;" style="rounded=0;whiteSpace=wrap;html=1;dashed=1;align=left;verticalAlign=bottom;" vertex="1" parent="1">
          <mxGeometry x="120" y="200" width="160" height="120" as="geometry" />
        </mxCell>
        <mxCell id="XCkmJXsmW-Lg5wgpeUs4-23" style="edgeStyle=orthogonalEdgeStyle;rounded=0;orthogonalLoop=1;jettySize=auto;html=1;exitX=0.5;exitY=0;exitDx=0;exitDy=0;entryX=0.5;entryY=1;entryDx=0;entryDy=0;" edge="1" parent="1" source="XCkmJXsmW-Lg5wgpeUs4-6">
          <mxGeometry relative="1" as="geometry">
            <mxPoint x="680" y="160" as="targetPoint" />
          </mxGeometry>
        </mxCell>
        <mxCell id="XCkmJXsmW-Lg5wgpeUs4-6" value="Azure Network&lt;div&gt;Prod&lt;/div&gt;" style="rounded=0;whiteSpace=wrap;html=1;dashed=1;verticalAlign=bottom;align=right;" vertex="1" parent="1">
          <mxGeometry x="600" y="200" width="160" height="120" as="geometry" />
        </mxCell>
        <mxCell id="XCkmJXsmW-Lg5wgpeUs4-9" value="Central RTR" style="ellipse;whiteSpace=wrap;html=1;aspect=fixed;" vertex="1" parent="1">
          <mxGeometry x="380" y="440" width="60" height="60" as="geometry" />
        </mxCell>
        <mxCell id="XCkmJXsmW-Lg5wgpeUs4-10" value="East&amp;nbsp;&lt;div&gt;RTR&lt;/div&gt;" style="ellipse;whiteSpace=wrap;html=1;aspect=fixed;" vertex="1" parent="1">
          <mxGeometry x="450" y="440" width="60" height="60" as="geometry" />
        </mxCell>
        <mxCell id="XCkmJXsmW-Lg5wgpeUs4-16" value="Azure DNS&amp;nbsp;&lt;div&gt;(forwarder)&lt;/div&gt;" style="rounded=1;whiteSpace=wrap;html=1;" vertex="1" parent="1">
          <mxGeometry x="380" y="210" width="120" height="60" as="geometry" />
        </mxCell>
        <mxCell id="XCkmJXsmW-Lg5wgpeUs4-20" value="Private Endpoint" style="ellipse;whiteSpace=wrap;html=1;aspect=fixed;strokeColor=#FF8000;" vertex="1" parent="1">
          <mxGeometry x="170" y="210" width="60" height="60" as="geometry" />
        </mxCell>
        <mxCell id="XCkmJXsmW-Lg5wgpeUs4-21" value="Private Endpoint" style="ellipse;whiteSpace=wrap;html=1;aspect=fixed;strokeColor=#FF8000;" vertex="1" parent="1">
          <mxGeometry x="650" y="210" width="60" height="60" as="geometry" />
        </mxCell>
        <mxCell id="XCkmJXsmW-Lg5wgpeUs4-24" value="Open AI Model Deployment" style="rounded=1;whiteSpace=wrap;html=1;strokeColor=#FF8000;" vertex="1" parent="1">
          <mxGeometry x="95" y="80" width="120" height="60" as="geometry" />
        </mxCell>
        <mxCell id="XCkmJXsmW-Lg5wgpeUs4-27" style="edgeStyle=orthogonalEdgeStyle;rounded=0;orthogonalLoop=1;jettySize=auto;html=1;exitX=0.5;exitY=0.113;exitDx=0;exitDy=0;exitPerimeter=0;entryX=0.5;entryY=1;entryDx=0;entryDy=0;" edge="1" parent="1" source="XCkmJXsmW-Lg5wgpeUs4-26" target="XCkmJXsmW-Lg5wgpeUs4-2">
          <mxGeometry relative="1" as="geometry" />
        </mxCell>
        <mxCell id="XCkmJXsmW-Lg5wgpeUs4-26" value="&amp;nbsp; &amp;nbsp; Ulta Beauty&amp;nbsp;&lt;div&gt;Private&amp;nbsp;&lt;/div&gt;&lt;div&gt;Network&lt;/div&gt;" style="ellipse;shape=cloud;whiteSpace=wrap;html=1;" vertex="1" parent="1">
          <mxGeometry x="380" y="600" width="120" height="80" as="geometry" />
        </mxCell>
        <mxCell id="XCkmJXsmW-Lg5wgpeUs4-28" value="Azure Monitor" style="rounded=1;whiteSpace=wrap;html=1;" vertex="1" parent="1">
          <mxGeometry x="235" y="44" width="80" height="30" as="geometry" />
        </mxCell>
        <mxCell id="XCkmJXsmW-Lg5wgpeUs4-29" value="MS Defender" style="rounded=1;whiteSpace=wrap;html=1;" vertex="1" parent="1">
          <mxGeometry x="235" y="85" width="80" height="30" as="geometry" />
        </mxCell>
        <mxCell id="XCkmJXsmW-Lg5wgpeUs4-30" value="MS IAM" style="rounded=1;whiteSpace=wrap;html=1;" vertex="1" parent="1">
          <mxGeometry x="235" y="126" width="80" height="30" as="geometry" />
        </mxCell>
        <mxCell id="XCkmJXsmW-Lg5wgpeUs4-32" value="Azure AI Foundry&lt;div&gt;Prod&lt;/div&gt;" style="rounded=0;whiteSpace=wrap;html=1;dashed=1;verticalAlign=top;align=left;strokeColor=#FF8000;" vertex="1" parent="1">
          <mxGeometry x="560" y="36" width="250" height="120" as="geometry" />
        </mxCell>
        <mxCell id="XCkmJXsmW-Lg5wgpeUs4-33" value="Open AI Model Deployment" style="rounded=1;whiteSpace=wrap;html=1;strokeColor=#FF8000;" vertex="1" parent="1">
          <mxGeometry x="580" y="76" width="120" height="60" as="geometry" />
        </mxCell>
        <mxCell id="XCkmJXsmW-Lg5wgpeUs4-34" value="Azure Monitor" style="rounded=1;whiteSpace=wrap;html=1;" vertex="1" parent="1">
          <mxGeometry x="720" y="40" width="80" height="30" as="geometry" />
        </mxCell>
        <mxCell id="XCkmJXsmW-Lg5wgpeUs4-35" value="MS Defender" style="rounded=1;whiteSpace=wrap;html=1;" vertex="1" parent="1">
          <mxGeometry x="720" y="81" width="80" height="30" as="geometry" />
        </mxCell>
        <mxCell id="XCkmJXsmW-Lg5wgpeUs4-36" value="MS IAM" style="rounded=1;whiteSpace=wrap;html=1;" vertex="1" parent="1">
          <mxGeometry x="720" y="122" width="80" height="30" as="geometry" />
        </mxCell>
      </root>
    </mxGraphModel>
  </diagram>
</mxfile>
